<svg width="16" height="16" viewBox="0 0 16 16" fill="none" xmlns="http://www.w3.org/2000/svg">
<path d="M13.428 12.2166C13.4237 13.9564 11.9633 15.4371 10.3041 15.446C9.88132 15.4482 9.52359 15.2621 9.18879 15.0186C7.88072 14.0674 7.7646 14.0649 6.46055 15.0194C5.99018 15.3636 5.49304 15.4999 4.90498 15.402C3.42521 15.1559 2.24904 13.8286 2.22172 12.3241C2.21167 11.7718 2.40373 11.2914 2.7707 10.8791C3.07432 10.5379 3.42346 10.2459 3.7848 9.97174C4.39954 9.50539 4.89627 8.93782 5.31853 8.29672C5.62884 7.82556 5.92484 7.34261 6.33664 6.94713C7.21548 6.10312 8.43289 6.10284 9.31132 6.94672C9.61494 7.23815 9.86565 7.57299 10.082 7.92976C10.6439 8.85562 11.3696 9.62303 12.2306 10.2781C12.7824 10.6978 13.2742 11.1837 13.3911 11.921C13.4104 12.0422 13.4216 12.1643 13.428 12.2165L13.428 12.2166Z" fill="white"/>
<path d="M3.74949e-06 6.34467C0.00937889 5.75297 0.11612 5.25449 0.401526 4.80689C0.990832 3.88237 2.05006 3.70827 2.90652 4.39104C3.94353 5.21777 4.2805 6.90915 3.63897 8.06715C3.05477 9.12199 1.86025 9.32071 0.970295 8.50765C0.315777 7.90978 0.042964 7.14346 -3.05176e-05 6.34457L3.74949e-06 6.34467Z" fill="white"/>
<path d="M3.61309 2.35827C3.62099 1.93625 3.75961 1.3597 4.11706 0.850485C4.94112 -0.323012 6.37724 -0.280532 7.09522 0.96754C7.73112 2.07353 7.70139 3.20187 6.9862 4.26727C6.295 5.29663 5.04049 5.34003 4.23998 4.39383C3.85118 3.93457 3.61386 3.23641 3.61307 2.35825L3.61309 2.35827Z" fill="white"/>
<path d="M12.0401 2.62219C12.0081 3.30805 11.813 3.99122 11.2741 4.53657C10.5635 5.25602 9.56482 5.24464 8.85901 4.51702C7.8615 3.48872 7.88265 1.53214 8.90227 0.528218C9.66997 -0.227954 10.7299 -0.160857 11.4077 0.683306C11.8493 1.23308 12.0281 1.86884 12.0401 2.62233L12.0401 2.62219Z" fill="white"/>
<path d="M15.6364 6.13098C15.5936 7.12153 15.2436 7.97048 14.4397 8.58601C13.3291 9.4366 11.9544 8.93665 11.6545 7.57122C11.4109 6.46228 11.7421 5.49933 12.5181 4.7073C13.0411 4.17374 13.6933 3.88016 14.4558 4.15376C15.2476 4.43795 15.53 5.10316 15.6346 5.87366C15.6463 5.95817 15.6365 6.04536 15.6365 6.13094L15.6364 6.13098Z" fill="white"/>
</svg>
