<svg width="21" height="21" viewBox="0 0 21 21" fill="none" xmlns="http://www.w3.org/2000/svg">
<path fill-rule="evenodd" clip-rule="evenodd" d="M9.85664 6.33802C10.3747 5.63981 10.5605 4.90396 9.97456 4.25443C8.65961 2.41445 7.77527 1.27662 7.22057 0.728659C6.16601 -0.313074 4.43124 -0.172163 3.51791 0.727769C3.02736 1.21113 2.86128 1.37712 2.35759 1.88873C-0.448062 4.69589 1.26297 10.6301 5.81151 15.1831C10.359 19.7351 16.2927 21.4471 19.1042 18.634C19.569 18.1859 19.9626 17.7921 20.2729 17.4641C21.168 16.5181 21.3038 14.8598 20.267 13.7825C19.7355 13.2302 18.6504 12.3886 16.7331 11.0171C16.1458 10.492 15.4495 10.6058 14.8112 11.0246C14.5041 11.226 14.2806 11.4298 13.8587 11.8522L13.0924 12.6188C12.9915 12.7198 11.6211 12.0335 10.2908 10.702C8.95984 9.36965 8.27402 7.99918 8.37447 7.89874L9.14124 7.13155C9.27512 6.99754 9.33912 6.93266 9.4212 6.84639C9.59221 6.66666 9.7338 6.50356 9.85664 6.33802ZM14.5059 14.0331L15.2723 13.2662C15.5045 13.0338 15.655 12.8909 15.7774 12.7923C17.4571 13.9985 18.4298 14.757 18.8272 15.1698C19.0657 15.4177 19.0287 15.87 18.8213 16.0892C18.5343 16.3925 18.1614 16.7656 17.7039 17.2069C15.8858 19.0257 11.096 17.6438 7.22525 13.7692C3.35327 9.89344 1.97201 5.10291 3.77632 3.29761C4.27798 2.7881 4.43692 2.62924 4.92048 2.15278C5.10178 1.97413 5.59564 1.93401 5.8162 2.15189C6.24326 2.57376 7.03546 3.58811 8.20083 5.21145C8.1405 5.28635 8.06515 5.37099 7.97345 5.46737C7.90615 5.5381 7.85008 5.59494 7.7275 5.71764L6.96148 6.48408C5.65833 7.78712 6.76814 10.0048 8.8771 12.1159C10.9846 14.2254 13.2031 15.3365 14.5059 14.0331Z" fill="white"/>
</svg>
