<svg width="40" height="40" viewBox="0 0 40 40" fill="none" xmlns="http://www.w3.org/2000/svg">
<g clip-path="url(#clip0_305_121)">
<path d="M39.7355 15.1998L20.4527 0.149566C20.3295 0.0538528 20.1783 0.00195312 20.0228 0.00195312C19.8672 0.00195312 19.716 0.0538528 19.5928 0.149566L0.264171 15.1998C0.180195 15.2667 0.112661 15.3523 0.0668184 15.4499C0.0209758 15.5475 -0.00193972 15.6544 -0.000146443 15.7624V23.711C-0.00145063 23.8434 0.0342193 23.9734 0.102779 24.0863C0.17134 24.1992 0.270019 24.2903 0.387519 24.3492C0.501606 24.4079 0.630082 24.4321 0.757479 24.4188C0.884875 24.4056 1.00576 24.3555 1.10558 24.2745L4.31703 21.7539V39.2936C4.31703 39.6865 4.66946 40.0047 5.06241 40.0047H34.5946C34.785 40.0066 34.9686 39.9333 35.1061 39.8004C35.2436 39.6675 35.324 39.4856 35.3302 39.2936V21.4792L38.8915 24.271C39.0122 24.3671 39.1615 24.4194 39.3153 24.4194C39.4197 24.4193 39.5226 24.3944 39.6157 24.3465C39.7328 24.2874 39.831 24.1962 39.899 24.0833C39.9669 23.9704 40.0019 23.8404 39.9998 23.7084V15.7597C40.0012 15.6522 39.978 15.5458 39.9322 15.4488C39.8864 15.3517 39.8191 15.2665 39.7355 15.1998ZM33.9205 38.5755H5.72672V20.6571L20.0201 9.55939L33.9205 20.3798V38.5755ZM38.5901 22.256L20.4501 8.09908C20.3284 8.00293 20.1782 7.95068 20.0236 7.95068C19.869 7.95068 19.7189 8.00293 19.5972 8.09908L1.40954 22.2623V16.109L20.0245 1.61077L38.5901 16.109V22.256Z" fill="#008FCC"/>
<path d="M16.5833 19.1716C14.2996 19.1716 12.5207 20.7884 12.0502 23.2886C11.3877 26.7727 13.4511 31.383 19.5551 33.8263L19.5921 33.8397C19.8552 33.9383 20.1448 33.9383 20.4079 33.8397L20.4493 33.8237C26.5507 31.3306 28.6123 26.7345 27.9489 23.2868V23.2815C27.4537 20.8079 25.6678 19.209 23.3982 19.209C22.3084 19.209 21.1445 19.5983 20.0062 20.3395C18.8546 19.5645 17.7092 19.1716 16.5833 19.1716ZM23.3974 20.6311C24.9894 20.6311 26.2026 21.7536 26.5692 23.5641C27.3295 27.5273 23.8317 30.8853 20.0026 32.4771C14.7066 30.3271 12.8881 26.4554 13.4388 23.5588C13.7824 21.7323 14.9885 20.5973 16.5868 20.5973C17.5189 20.5973 18.5542 21.0061 19.5824 21.7794C19.7029 21.87 19.8489 21.9194 19.9991 21.9203C20.1494 21.9213 20.296 21.8738 20.4176 21.7847C21.4414 21.0292 22.4731 20.6311 23.3974 20.6311Z" fill="#008FCC"/>
</g>
<defs>
<clipPath id="clip0_305_121">
<rect width="40" height="40" fill="white"/>
</clipPath>
</defs>
</svg>
